<svg xmlns="http://www.w3.org/2000/svg" width="230.708" height="146.311" viewBox="0 0 230.708 146.311">
  <title>TGD-new-logo</title>
  <g>
    <g>
      <path d="M22.751,113.462a32.981,32.981,0,0,1-10.807,1.808C3.379,115.27,0,111.222,0,103.009c0-9.076,3.889-13.4,12.062-13.4A16.428,16.428,0,0,1,18,90.554c1.1-.353,2.124-.747,3.183-1.1v8.487h-3.1l-.942-3.772a11.374,11.374,0,0,0-5.345-1.062c-4.636,0-7.191,2.79-7.191,9.234,0,7.113,2.24,9.47,7.742,9.47a14.765,14.765,0,0,0,4.008-.51v-5.462H12.887V102.42H23.065v3.419H20.393v4.6h2.358Z"/>
      <path d="M24.8,114.72V111.3h2.83l.079-.158V93.737l-.079-.157H24.8V90.161H45.788v8.016h-3.1l-1.141-4.638H32v7.153h4.361l.511-2.947h3.025l-.666,9H36.2v-2.83H32v7.428h9.51l1.532-4.519h3.221l-.824,7.9Z"/>
      <path d="M64.8,114.915,54.467,94.6H54v16.542l.078.158H56.9v3.419H47.354V111.3h2.83l.079-.158V93.737l-.079-.157h-2.83V90.161h9.274l10.138,19.882h.473V93.737l-.079-.157H64.33V90.161h9.549V93.58h-2.83l-.078.157v21.178Z"/>
      <path d="M81.084,114.72V111.3H84.62l.079-.158V93.58h-5.03L78.49,98.726h-3.1V90.161H98.334v8.565H95.268L94.051,93.58H89.022v17.563l.078.158h3.537v3.419Z"/>
      <path d="M100.194,114.72V111.3h2.83l.079-.158V93.737l-.079-.157h-2.83V90.161H111.12V93.58h-3.615l-.079.157v17.406l.079.158h7.857l1.651-4.832h3.145l-.826,8.251Z"/>
      <path d="M121.425,114.72V111.3h2.829l.079-.158V93.737l-.079-.157h-2.829V90.161h20.984v8.016h-3.1l-1.14-4.638h-9.549v7.153h4.361l.511-2.947h3.026l-.667,9H132.82v-2.83h-4.2v7.428h9.51l1.532-4.519h3.221l-.823,7.9Z"/>
      <path d="M167.686,114.72V111.3h2.634l.078-.2L170.162,93.7h-.51l-6.328,20.237h-4.793L152.165,93.7h-.511l-.236,17.408.079.2h2.672v3.419h-9.391V111.3h2.789l.079-.2.315-17.368-.079-.157h-2.789V90.161h10.334l5.5,18.546h.511l5.54-18.546H177.2V93.58h-2.789l-.079.157.275,17.368.078.2h2.79v3.419Z"/>
      <path d="M193.324,114.72V111.3h2.634l.078-.158-1.219-4.047h-8.723l-1.257,4.047.117.158h2.634v3.419h-9.353V111.3h2.593l6.287-19.136V90.633l6.406-1.179,7.073,21.847h2.632v3.419Zm-2.515-20.749h-.668l-3.064,9.942h6.757Z"/>
      <path d="M221.632,114.915,211.3,94.6h-.47v16.542l.078.158h2.828v3.419h-9.549V111.3h2.83l.079-.158V93.737l-.079-.157h-2.83V90.161h9.275L223.6,110.043h.472V93.737l-.079-.157H221.16V90.161h9.548V93.58h-2.829l-.079.157v21.178Z"/>
    </g>
    <g>
      <path d="M32.984,145.925v-2.4h1.983l.056-.109v-12.2l-.056-.109H32.984v-2.4h7.547c6.222,0,8.865,2.616,8.865,8.316,0,5.865-2.753,8.894-9,8.894Zm7.3-2.4c4.049,0,5.894-2.037,5.894-6.333,0-4.544-1.818-6.085-6.086-6.085H38.052v12.418Z"/>
      <path d="M55.771,145.925v-2.4h1.983l.056-.109v-12.2l-.056-.109H55.771v-2.4h14.7v5.617H68.3l-.8-3.248H60.811v5.01h3.056l.359-2.064h2.119l-.468,6.305h-2.12v-1.983H60.811v5.2h6.663l1.075-3.166h2.258l-.578,5.535Z"/>
      <path d="M88.224,134.167l-.687-2.644a8.081,8.081,0,0,0-3.25-.716c-2.644,0-3.717.745-3.717,2.287,0,1.514.991,2.2,4.406,2.835,4.433.8,5.918,2.121,5.918,5.066,0,3.333-2.146,5.287-7.049,5.287a19.577,19.577,0,0,1-5.891-.908l-.386-5.01h2.313l.826,2.973a12.117,12.117,0,0,0,3.194.5c2.67,0,3.828-.8,3.828-2.535,0-1.6-.854-2.257-4.379-2.891-3.855-.687-5.947-1.818-5.947-4.983,0-3.387,2.478-5.066,6.692-5.066a16.281,16.281,0,0,1,4.323.578l1.981-.69v5.921Z"/>
      <path d="M97.466,145.925v-2.4h2.2l.056-.109v-12.2l-.056-.109h-2.2v-2.4h7.517v2.4h-2.175l-.055.109v12.2l.055.109h2.175v2.4Z"/>
      <path d="M127.39,145.044a23.134,23.134,0,0,1-7.573,1.267c-6,0-8.37-2.837-8.37-8.591,0-6.362,2.726-9.391,8.452-9.391a11.474,11.474,0,0,1,4.158.662c.772-.247,1.488-.524,2.231-.772v5.948h-2.175l-.66-2.644a8.008,8.008,0,0,0-3.746-.743c-3.25,0-5.039,1.955-5.039,6.472,0,4.983,1.569,6.636,5.425,6.636a10.328,10.328,0,0,0,2.809-.359V139.7h-2.425v-2.4h7.132v2.4h-1.872v3.223h1.653Z"/>
      <path d="M146.6,146.063l-7.241-14.236h-.332V143.42l.055.109h1.983v2.4H134.37v-2.4h1.983l.056-.109v-12.2l-.056-.109H134.37v-2.4h6.5l7.105,13.933h.33V131.22l-.053-.109h-1.983v-2.4h6.69v2.4h-1.981l-.056.109v14.843Z"/>
      <path d="M159.223,145.925v-2.4h1.983l.056-.109v-12.2l-.056-.109h-1.983v-2.4h14.7v5.617h-2.175l-.8-3.248h-6.692v5.01h3.056l.359-2.064h2.12l-.467,6.305h-2.121v-1.983h-2.947v5.2h6.663L172,140.39h2.258l-.578,5.535Z"/>
      <path d="M192.117,145.925l-3.58-6.746h-2.7v4.241l.055.109h1.983v2.4H180.8v-2.4h1.984l.055-.109v-12.2l-.055-.109H180.8v-2.4h7.739c4.928,0,6.775,1.653,6.775,4.9a4.9,4.9,0,0,1-3.636,5.15l2.616,4.763h2.037v2.4Zm-3.663-9.086c2.506,0,3.634-1.019,3.634-3.141,0-1.762-1.294-2.587-3.772-2.587h-2.478v5.728Z"/>
    </g>
    <line x1="10.654" y1="121.121" x2="218.66" y2="121.121" fill="none" stroke="#000" stroke-miterlimit="10"/>
    <path d="M179.937,55.759q-5.979-2.986-12.257-5.375V43.1A43.1,43.1,0,0,0,124.582,0h-19.85a43.1,43.1,0,0,0-43.1,43.1v7.286q-6.265,2.391-12.257,5.375c-9.195,4.515-12.049,14.224-7.469,20.494h0a15.778,15.778,0,0,0,14.118,6.193c4.925-10.439,29.346-18.37,58.732-18.37s53.827,7.938,58.738,18.383a15.749,15.749,0,0,0,13.911-6.206h0C191.987,69.983,189.132,60.274,179.937,55.759Z"/>
    <g>
      <path d="M106.27,75.98l-.4-1.783c-.109-.454-.255-.636-2.51-.636h-.218v8.275l.018.073,1.746.509v1.146H99.832V82.055h1.582l.036-.073V73.561h-.309c-2.419,0-2.6.236-2.71.8L98.14,75.98H96.848l.328-3.783H107.47V75.98Z"/>
      <path d="M116.02,83.564V82.055h1.364l.037-.073V78.49H111.8v3.346l.037.073,1.546.509v1.146h-4.675V82.055h1.364l.037-.073V73.925l-.037-.073-1.546-.509V72.2H113.2v1.509h-1.364l-.037.073v3.328h5.621V73.925l-.037-.073-1.546-.509V72.2h4.674v1.509h-1.364l-.036.073v8.057l.036.073,1.546.509v1.146Z"/>
      <path d="M130.972,83.564h-9.167V82.055h1.364l.036-.073V73.925l-.036-.073-1.546-.509V72.2h9.512V75.58h-1.218L129.48,74.2c-.145-.472-.254-.491-3.51-.491H124.9v3.547h.309c1.637,0,1.674-.036,1.91-.455l.509-1.055h1l-.4,3.966h-1l-.255-1.146c-.036-.146-.09-.2-1.764-.2H124.9v3.693h.982c2.983,0,3.365-.055,3.765-.873l.455-.91h1.218Z"/>
    </g>
  </g>
</svg>
